<svg xmlns="http://www.w3.org/2000/svg" width="560" height="200" viewBox="0 0 560 200">
  <rect x="0"   y="0" width="80" height="120" fill="#0A1628"/>
  <rect x="80"  y="0" width="80" height="120" fill="#FFFFFF" stroke="#E2E8F0" stroke-width="1"/>
  <rect x="160" y="0" width="80" height="120" fill="#64748B"/>
  <rect x="240" y="0" width="80" height="120" fill="#1E5FFF"/>
  <rect x="320" y="0" width="80" height="120" fill="#6E97FF"/>
  <rect x="400" y="0" width="80" height="120" fill="#0F2138"/>
  <rect x="480" y="0" width="80" height="120" fill="#C3CCDA"/>
  <text x="8"   y="148" font-family="monospace" font-size="9" fill="#0A1628">#0A1628</text>
  <text x="88"  y="148" font-family="monospace" font-size="9" fill="#64748B">#FFFFFF</text>
  <text x="168" y="148" font-family="monospace" font-size="9" fill="#64748B">#64748B</text>
  <text x="248" y="148" font-family="monospace" font-size="9" fill="#1E5FFF">#1E5FFF</text>
  <text x="328" y="148" font-family="monospace" font-size="9" fill="#6E97FF">#6E97FF</text>
  <text x="408" y="148" font-family="monospace" font-size="9" fill="#64748B">#0F2138</text>
  <text x="488" y="148" font-family="monospace" font-size="9" fill="#64748B">#C3CCDA</text>
  <text x="0"   y="168" font-family="monospace" font-size="8" fill="#64748B">Navy</text>
  <text x="80"  y="168" font-family="monospace" font-size="8" fill="#64748B">Blanco</text>
  <text x="160" y="168" font-family="monospace" font-size="8" fill="#64748B">Gris</text>
  <text x="240" y="168" font-family="monospace" font-size="8" fill="#64748B">Cobalto</text>
  <text x="320" y="168" font-family="monospace" font-size="8" fill="#64748B">Cobalto+</text>
  <text x="400" y="168" font-family="monospace" font-size="8" fill="#64748B">Navy med.</text>
  <text x="480" y="168" font-family="monospace" font-size="8" fill="#64748B">Texto frío</text>
  <rect x="0"   y="185" width="80" height="15" fill="#0D0D0D"/>
  <rect x="80"  y="185" width="80" height="15" fill="#4A5240"/>
  <rect x="160" y="185" width="80" height="15" fill="#6B6B6B"/>
  <rect x="240" y="185" width="80" height="15" fill="#F5F5F0" stroke="#E2E8F0" stroke-width="1"/>
  <text x="2"   y="195" font-family="monospace" font-size="8" fill="#FFFFFF">Negro</text>
  <text x="82"  y="195" font-family="monospace" font-size="8" fill="#FFFFFF">Verde mil.</text>
  <text x="162" y="195" font-family="monospace" font-size="8" fill="#FFFFFF">Gris</text>
  <text x="242" y="195" font-family="monospace" font-size="8" fill="#64748B">B. Hueso</text>
</svg>
