<svg xmlns="http://www.w3.org/2000/svg" width="120" height="200" viewBox="0 0 120 200">
  <polygon points="60,16 73,26 73,44 60,54 47,44 47,26" fill="#1E5FFF"/>
  <polygon points="43,58 77,58 86,112 34,112" fill="#1E5FFF"/>
  <polygon points="34,62 49,62 52,98 39,100 27,80" fill="#6E97FF"/>
  <polygon points="71,62 86,62 93,80 81,100 68,98" fill="#1E5FFF"/>
  <polygon points="42,114 59,114 55,178 40,180 38,144" fill="#1E5FFF"/>
  <polygon points="61,114 78,114 80,144 78,180 63,178" fill="#6E97FF"/>
  <polygon points="34,180 56,178 56,190 32,190" fill="#1E5FFF"/>
  <polygon points="63,178 82,180 84,190 61,190" fill="#6E97FF"/>
</svg>
